<svg xmlns="http://www.w3.org/2000/svg" viewBox="0 0 175.15 175.15"><defs><style>.a{fill:#5aedc5;}</style></defs><title>logo-icon</title><path class="a" d="M55.14,0A55.08,55.08,0,0,0,0,55v82.47H24.6V54.84A31.87,31.87,0,0,1,55.2,24.6H99.88V0Z"/><polygon class="a" points="115.8 0 112.92 0 112.92 2.89 112.92 21.71 112.92 24.6 115.8 24.6 134.62 24.6 137.51 24.6 137.51 21.71 137.51 2.89 137.51 0 134.62 0 115.8 0"/><polygon class="a" points="153.44 75.28 150.56 75.28 150.56 78.17 150.56 96.98 150.56 99.88 153.44 99.88 172.26 99.88 175.15 99.88 175.15 96.98 175.15 78.17 175.15 75.28 172.26 75.28 153.44 75.28"/><polygon class="a" points="172.26 0 153.44 0 150.56 0 150.56 2.89 150.56 21.71 150.56 24.6 153.44 24.6 172.26 24.6 175.15 24.6 175.15 21.71 175.15 2.89 175.15 0 172.26 0"/><polygon class="a" points="153.44 37.64 150.56 37.64 150.56 40.53 150.56 59.35 150.56 62.24 153.44 62.24 172.26 62.24 175.15 62.24 175.15 59.35 175.15 40.53 175.15 37.64 172.26 37.64 153.44 37.64"/><polygon class="a" points="153.44 112.92 150.56 112.92 150.56 115.81 150.56 134.62 150.56 137.51 153.44 137.51 172.26 137.51 175.15 137.51 175.15 134.62 175.15 115.81 175.15 112.92 172.26 112.92 153.44 112.92"/><polygon class="a" points="153.44 150.56 150.56 150.56 150.56 153.45 150.56 172.26 150.56 175.15 153.44 175.15 172.26 175.15 175.15 175.15 175.15 172.26 175.15 153.45 175.15 150.56 172.26 150.56 153.44 150.56"/><polygon class="a" points="115.8 150.56 112.92 150.56 112.92 153.45 112.92 172.26 112.92 175.15 115.8 175.15 134.62 175.15 137.51 175.15 137.51 172.26 137.51 153.45 137.51 150.56 134.62 150.56 115.8 150.56"/><polygon class="a" points="78.16 150.56 75.28 150.56 75.28 153.45 75.28 172.26 75.28 175.15 78.16 175.15 96.98 175.15 99.88 175.15 99.88 172.26 99.88 153.45 99.88 150.56 96.98 150.56 78.16 150.56"/><polygon class="a" points="40.53 150.56 37.64 150.56 37.64 153.45 37.64 172.26 37.64 175.15 40.53 175.15 59.35 175.15 62.24 175.15 62.24 172.26 62.24 153.45 62.24 150.56 59.35 150.56 40.53 150.56"/><polygon class="a" points="2.89 150.56 0 150.56 0 153.45 0 172.26 0 175.15 2.89 175.15 21.71 175.15 24.6 175.15 24.6 172.26 24.6 153.45 24.6 150.56 21.71 150.56 2.89 150.56"/><path class="a" d="M55.14,0A55.08,55.08,0,0,0,0,55v82.47H24.6V54.84A31.87,31.87,0,0,1,55.2,24.6H99.88V0Z"/><polygon class="a" points="115.8 0 112.92 0 112.92 2.89 112.92 21.71 112.92 24.6 115.8 24.6 134.62 24.6 137.51 24.6 137.51 21.71 137.51 2.89 137.51 0 134.62 0 115.8 0"/><polygon class="a" points="153.44 75.28 150.56 75.28 150.56 78.17 150.56 96.98 150.56 99.88 153.44 99.88 172.26 99.88 175.15 99.88 175.15 96.98 175.15 78.17 175.15 75.28 172.26 75.28 153.44 75.28"/><polygon class="a" points="172.26 0 153.44 0 150.56 0 150.56 2.89 150.56 21.71 150.56 24.6 153.44 24.6 172.26 24.6 175.15 24.6 175.15 21.71 175.15 2.89 175.15 0 172.26 0"/><polygon class="a" points="153.44 37.64 150.56 37.64 150.56 40.53 150.56 59.35 150.56 62.24 153.44 62.24 172.26 62.24 175.15 62.24 175.15 59.35 175.15 40.53 175.15 37.64 172.26 37.64 153.44 37.64"/><polygon class="a" points="153.44 112.92 150.56 112.92 150.56 115.81 150.56 134.62 150.56 137.51 153.44 137.51 172.26 137.51 175.15 137.51 175.15 134.62 175.15 115.81 175.15 112.92 172.26 112.92 153.44 112.92"/><polygon class="a" points="153.44 150.56 150.56 150.56 150.56 153.45 150.56 172.26 150.56 175.15 153.44 175.15 172.26 175.15 175.15 175.15 175.15 172.26 175.15 153.45 175.15 150.56 172.26 150.56 153.44 150.56"/><polygon class="a" points="115.8 150.56 112.92 150.56 112.92 153.45 112.92 172.26 112.92 175.15 115.8 175.15 134.62 175.15 137.51 175.15 137.51 172.26 137.51 153.45 137.51 150.56 134.62 150.56 115.8 150.56"/><polygon class="a" points="78.16 150.56 75.28 150.56 75.28 153.45 75.28 172.26 75.28 175.15 78.16 175.15 96.98 175.15 99.88 175.15 99.88 172.26 99.88 153.45 99.88 150.56 96.98 150.56 78.16 150.56"/><polygon class="a" points="40.53 150.56 37.64 150.56 37.64 153.45 37.64 172.26 37.64 175.15 40.53 175.15 59.35 175.15 62.24 175.15 62.24 172.26 62.24 153.45 62.24 150.56 59.35 150.56 40.53 150.56"/><polygon class="a" points="2.89 150.56 0 150.56 0 153.45 0 172.26 0 175.15 2.89 175.15 21.71 175.15 24.6 175.15 24.6 172.26 24.6 153.45 24.6 150.56 21.71 150.56 2.89 150.56"/></svg>